<svg xmlns="http://www.w3.org/2000/svg" xmlns:xlink="http://www.w3.org/1999/xlink" width="451.999" height="663.147" viewBox="0 0 451.999 663.147"><defs><linearGradient id="a" x1="0.074" y1="1" x2="0.93" y2="-0.016" gradientUnits="objectBoundingBox"><stop offset="0" stop-color="#f22248"/><stop offset="1" stop-color="#f2594b"/></linearGradient><linearGradient id="b" x1="1.105" y1="-0.025" x2="-0.094" y2="1.042" gradientUnits="objectBoundingBox"><stop offset="0" stop-color="#46db62"/><stop offset="1" stop-color="#00b258"/></linearGradient><linearGradient id="c" x1="0.5" y1="0" x2="0.5" y2="1" xlink:href="#a"/><clipPath id="d"><rect width="283.479" height="592.235" rx="16.781" fill="url(#a)"/></clipPath><clipPath id="g"><rect width="257.957" height="538.916" rx="16.781" fill="url(#b)"/></clipPath></defs><g transform="translate(-1175 -227)"><g transform="translate(1001.187 163.71)"><g transform="translate(328.573 76.604)"><rect width="283.479" height="592.235" rx="16.781" fill="url(#c)"/><g clip-path="url(#d)"><rect width="353.786" height="608.828" transform="translate(-35.154 -8.297)" fill="url(#a)"/></g></g><path d="M625.812,207.607H623.5V106.853A43.565,43.565,0,0,0,579.939,63.29H360.686a43.564,43.564,0,0,0-43.565,43.563v39.089h-2.309V170.7h2.309v18.79h-2.309v46.231h2.309v12.527h-2.309v46.23h2.309V638.59a43.564,43.564,0,0,0,43.565,43.563H579.939A43.565,43.565,0,0,0,623.5,638.59V279.86h2.309ZM609.187,638.59a29.28,29.28,0,0,1-29.248,29.247H360.686a29.28,29.28,0,0,1-29.248-29.247V106.853a29.281,29.281,0,0,1,29.248-29.247H389.26a4.662,4.662,0,0,1,3.84,4.633s4.828,17.316,12.989,17.316H534.534c8.162,0,12.989-17.316,12.989-17.316a4.664,4.664,0,0,1,3.842-4.633h28.574a29.281,29.281,0,0,1,29.248,29.247Z" transform="translate(0)"/></g><g transform="translate(860.187 263.71)"><g transform="translate(327.334 75.406)"><rect width="257.957" height="538.916" rx="16.781" fill="url(#b)"/><g clip-path="url(#g)"><rect width="321.935" height="554.015" transform="translate(-31.989 -7.55)" fill="url(#b)"/></g></g><path d="M597.813,194.614h-2.1V102.931A39.643,39.643,0,0,0,556.07,63.29H356.556a39.642,39.642,0,0,0-39.643,39.641V138.5h-2.1v22.526h2.1v17.1h-2.1V220.2h2.1v11.4h-2.1v42.067h2.1V586.8a39.642,39.642,0,0,0,39.643,39.641H556.07A39.643,39.643,0,0,0,595.712,586.8V260.362h2.1ZM582.685,586.8a26.644,26.644,0,0,1-26.615,26.614H356.556A26.644,26.644,0,0,1,329.941,586.8V102.931a26.645,26.645,0,0,1,26.615-26.614h26a4.243,4.243,0,0,1,3.495,4.216s4.394,15.757,11.819,15.757H514.753c7.427,0,11.819-15.757,11.819-15.757a4.244,4.244,0,0,1,3.5-4.216h26a26.645,26.645,0,0,1,26.615,26.614Z" transform="translate(0)"/></g></g></svg>