<svg xmlns="http://www.w3.org/2000/svg" xmlns:xlink="http://www.w3.org/1999/xlink" viewBox="0 0 664.72 159.52"><defs><style>.cls-1{fill:url(#Degradado_sin_nombre_64)}.cls-2{fill:url(#Degradado_sin_nombre_178)}.cls-3{fill:url(#Degradado_sin_nombre_179)}</style><linearGradient id="Degradado_sin_nombre_64" x1="21.16" x2="129.01" y1="147.21" y2="39.36" gradientUnits="userSpaceOnUse"><stop offset="0" stop-color="#f22248"/><stop offset="1" stop-color="#f2594b"/></linearGradient><linearGradient id="Degradado_sin_nombre_178" x1="90.76" x2="144.96" y1="27.1" y2="27.1" gradientUnits="userSpaceOnUse"><stop offset="0" stop-color="#46db62"/><stop offset="1" stop-color="#00b258"/></linearGradient><linearGradient id="Degradado_sin_nombre_179" x1="98.69" x2="152.89" y1="62.13" y2="7.93" gradientUnits="userSpaceOnUse"><stop offset="0" stop-color="#00b258"/><stop offset="1" stop-color="#46db62"/></linearGradient></defs><title>Recurso 9</title><g id="Capa_2" data-name="Capa 2"><g id="Capa_1-2" data-name="Capa 1"><path d="M202.47,75v33.43H182.92V13.52h37a42.93,42.93,0,0,1,18.8,3.91,28.83,28.83,0,0,1,12.48,11.11,31,31,0,0,1,4.37,16.39q0,13.95-9.55,22t-26.43,8Zm0-15.84h17.47q7.76,0,11.83-3.65t4.07-10.43q0-7-4.1-11.27T220.4,29.36H202.47Z"/><path d="M264,72.5a41.85,41.85,0,0,1,4-18.7,29.63,29.63,0,0,1,11.64-12.71,33.9,33.9,0,0,1,17.63-4.5q14.26,0,23.29,8.73t10.07,23.73l.13,4.82q0,16.23-9.06,26t-24.3,9.81q-15.26,0-24.35-9.77T264,73.35Zm18.84,1.34q0,10.05,3.78,15.37a13.57,13.57,0,0,0,21.5.06Q312,84,312,72.47q0-9.85-3.85-15.28a12.49,12.49,0,0,0-10.81-5.41,12.29,12.29,0,0,0-10.69,5.38Q282.83,62.55,282.83,73.84Z"/><path d="M360.05,37.9l.59,7.88q7.5-9.18,20.27-9.19,13.62,0,18.7,10.76Q407,36.6,420.79,36.59q11.47,0,17.07,6.68t5.61,20.11v45h-18.9v-45c0-4-.78-6.92-2.35-8.76s-4.32-2.77-8.27-2.77q-8.47,0-11.73,8.08l.06,48.42H383.45V63.51c0-4.09-.81-7-2.41-8.87s-4.35-2.73-8.21-2.73q-8,0-11.6,6.64v49.86H342.39V37.9Z"/><path d="M490.39,109.71q-15.51,0-25.25-9.51t-9.75-25.35V73a42.53,42.53,0,0,1,4.11-19,30.11,30.11,0,0,1,11.63-12.91,32.64,32.64,0,0,1,17.17-4.53q14.47,0,22.78,9.13t8.31,25.87v7.69h-44.9A17.49,17.49,0,0,0,480,90.36a16.64,16.64,0,0,0,11.63,4.17q10.88,0,17-7.89L517.89,97a28.28,28.28,0,0,1-11.47,9.36A37.71,37.71,0,0,1,490.39,109.71Zm-2.15-57.93a11.75,11.75,0,0,0-9.09,3.79c-2.33,2.54-3.81,6.16-4.47,10.87h26.2V64.93c-.09-4.19-1.21-7.43-3.39-9.72S492.24,51.78,488.24,51.78Z"/><path d="M550,108.41h-18.9V8.31H550Z"/><path d="M585.34,108.41h-18.9V8.31h18.9Z"/><path d="M597.92,72.5a41.72,41.72,0,0,1,4-18.7,29.54,29.54,0,0,1,11.63-12.71,33.92,33.92,0,0,1,17.63-4.5q14.26,0,23.3,8.73t10.07,23.73l.13,4.82q0,16.23-9.06,26t-24.31,9.81q-15.26,0-24.34-9.77t-9.09-26.59Zm18.83,1.34q0,10.05,3.78,15.37a13.58,13.58,0,0,0,21.51.06q3.84-5.25,3.84-16.8,0-9.85-3.84-15.28a12.51,12.51,0,0,0-10.82-5.41,12.29,12.29,0,0,0-10.69,5.38Q616.75,62.55,616.75,73.84Z"/><path d="M191.14,140.2a14.51,14.51,0,0,1-5.7-2.77,5.31,5.31,0,0,1-1.79-4.06,5.57,5.57,0,0,1,2.19-4.51,8.6,8.6,0,0,1,5.67-1.79,9.55,9.55,0,0,1,4.25.92,6.93,6.93,0,0,1,2.88,2.54,6.44,6.44,0,0,1,1,3.54H196.6a4.24,4.24,0,0,0-1.33-3.31,5.42,5.42,0,0,0-3.76-1.2,5.54,5.54,0,0,0-3.52,1,3.31,3.31,0,0,0-1.26,2.75,3,3,0,0,0,1.2,2.4,11.82,11.82,0,0,0,4.08,1.78,19.49,19.49,0,0,1,4.51,1.79,6.82,6.82,0,0,1,2.41,2.28,5.85,5.85,0,0,1,.78,3.06,5.41,5.41,0,0,1-2.19,4.5,9.31,9.31,0,0,1-5.85,1.69,10.87,10.87,0,0,1-4.45-.91,7.53,7.53,0,0,1-3.18-2.5,6.15,6.15,0,0,1-1.12-3.6H186a4,4,0,0,0,1.54,3.31,6.53,6.53,0,0,0,4.14,1.21,6,6,0,0,0,3.7-1,3.22,3.22,0,0,0,1.28-2.69,3.11,3.11,0,0,0-1.19-2.62A13.56,13.56,0,0,0,191.14,140.2Z"/><path d="M229.34,129.88h-7.43v20.61h-3V129.88h-7.41v-2.49h17.87Z"/><path d="M251,141.15h-5.43v9.34H242.5v-23.1h7.65a9.11,9.11,0,0,1,6,1.77,6.41,6.41,0,0,1,2.1,5.18,6.2,6.2,0,0,1-1.17,3.76,7,7,0,0,1-3.24,2.4l5.42,9.8v.19H256Zm-5.43-2.49h4.68a5.28,5.28,0,0,0,3.61-1.18,4,4,0,0,0,1.35-3.15,4.19,4.19,0,0,0-1.28-3.29,5.42,5.42,0,0,0-3.69-1.16h-4.67Z"/><path d="M285,144.45h-9.68l-2.18,6H270l8.82-23.1h2.67l8.84,23.1h-3.13ZM276.28,142h7.85l-3.93-10.81Z"/><path d="M317.15,129.88h-7.43v20.61h-3V129.88h-7.41v-2.49h17.87Z"/><path d="M343.39,139.81h-10V148H345v2.49H330.33v-23.1h14.52v2.49H333.38v7.44h10Z"/><path d="M375.61,147.46a7.06,7.06,0,0,1-3.27,2.52,13.41,13.41,0,0,1-4.9.83,9.51,9.51,0,0,1-5-1.32,8.88,8.88,0,0,1-3.39-3.77,13,13,0,0,1-1.23-5.67v-2q0-5.22,2.43-8.1a8.52,8.52,0,0,1,6.85-2.87,8.82,8.82,0,0,1,5.83,1.85,8,8,0,0,1,2.69,5.24h-3c-.58-3.06-2.39-4.6-5.46-4.6a5.42,5.42,0,0,0-4.65,2.15,10.56,10.56,0,0,0-1.59,6.24v1.89a9.86,9.86,0,0,0,1.78,6.19,5.74,5.74,0,0,0,4.81,2.29,10.78,10.78,0,0,0,3-.38,4.63,4.63,0,0,0,2.12-1.28v-5.18h-5.35V139h8.38Z"/><path d="M397.49,139l6-11.6H407l-8,14.49v8.61h-3v-8.61l-8-14.49h3.49Z"/><path d="M440.57,148h10.95v2.49h-14v-23.1h3.06Z"/><path d="M477.81,144.45h-9.68l-2.17,6h-3.14l8.82-23.1h2.67l8.84,23.1H480ZM469.05,142h7.86L473,131.15Z"/><path d="M496,150.49v-23.1h7.55a8.8,8.8,0,0,1,5.66,1.55,5.62,5.62,0,0,1,1.9,4.6,4.73,4.73,0,0,1-.92,2.87,6.05,6.05,0,0,1-2.51,1.93,5.37,5.37,0,0,1,3,2,5.74,5.74,0,0,1,1.09,3.5,6.21,6.21,0,0,1-2,4.89,8.35,8.35,0,0,1-5.7,1.77Zm3-13.25h4.61a4.78,4.78,0,0,0,3.19-1,3.35,3.35,0,0,0,1.2-2.72,3.29,3.29,0,0,0-1.11-2.77,5.44,5.44,0,0,0-3.38-.87h-4.51Zm0,2.45V148h5a4.82,4.82,0,0,0,3.35-1.1,3.88,3.88,0,0,0,1.23-3q0-4.17-4.54-4.17Z"/><path d="M140.5,50.85a56.13,56.13,0,0,1-20.65,12.78,39,39,0,0,1,2.27,13.15v20.9a39.46,39.46,0,0,1-39.48,39.38H61.84A39.49,39.49,0,0,1,22.47,97.68,60.25,60.25,0,0,1,78.55,37.54,55.5,55.5,0,0,1,86.1,15,87.32,87.32,0,0,0,0,102.36a57.14,57.14,0,0,0,57.17,57.16H87.42a57.14,57.14,0,0,0,57.17-57.16V72.11A57.11,57.11,0,0,0,140.5,50.85Z" class="cls-1"/><path d="M145,0,90.76,54.2V38.4A38.41,38.41,0,0,1,129.16,0Z" class="cls-2"/><path d="M145,0V15.9a38.37,38.37,0,0,1-38.3,38.3H90.76Z" class="cls-3"/></g></g></svg>